<?xml version="1.0" encoding="UTF-8" standalone="no"?>
<svg
   xmlns:dc="http://purl.org/dc/elements/1.1/"
   xmlns:cc="http://creativecommons.org/ns#"
   xmlns:rdf="http://www.w3.org/1999/02/22-rdf-syntax-ns#"
   xmlns:svg="http://www.w3.org/2000/svg"
   xmlns="http://www.w3.org/2000/svg"
   xmlns:sodipodi="http://sodipodi.sourceforge.net/DTD/sodipodi-0.dtd"
   xmlns:inkscape="http://www.inkscape.org/namespaces/inkscape"
   viewBox="0 0 761.86523 250.50426"
   height="250.50426"
   width="761.86523"
   xml:space="preserve"
   version="1.1"
   id="svg3355"
   inkscape:version="0.91 r13725"
   sodipodi:docname="amerprise-logo.svg"><sodipodi:namedview
     pagecolor="#ffffff"
     bordercolor="#666666"
     borderopacity="1"
     objecttolerance="10"
     gridtolerance="10"
     guidetolerance="10"
     inkscape:pageopacity="0"
     inkscape:pageshadow="2"
     inkscape:window-width="640"
     inkscape:window-height="480"
     id="namedview53"
     showgrid="false"
     inkscape:zoom="0.23838384"
     inkscape:cx="382.00109"
     inkscape:cy="128.37863"
     inkscape:window-x="0"
     inkscape:window-y="0"
     inkscape:window-maximized="0"
     inkscape:current-layer="svg3355" /><metadata
     id="metadata3361"><rdf:RDF><cc:Work
         rdf:about=""><dc:format>image/svg+xml</dc:format><dc:type
           rdf:resource="http://purl.org/dc/dcmitype/StillImage" /><dc:title /></cc:Work></rdf:RDF></metadata><defs
     id="defs3359"><clipPath
       id="clipPath3371"
       clipPathUnits="userSpaceOnUse"><path
         id="path3373"
         d="m 0,292.8913 612,0 0,206.2174 -612,0 0,-206.2174 z"
         inkscape:connector-curvature="0" /></clipPath><clipPath
       id="clipPath3389"
       clipPathUnits="userSpaceOnUse"><path
         id="path3391"
         d="m 0.3991304,293.2971 609.4920996,0 0,200.4034 -609.4920996,0 0,-200.4034 z"
         inkscape:connector-curvature="0" /></clipPath><clipPath
       id="clipPath3401"
       clipPathUnits="userSpaceOnUse"><path
         id="path3403"
         d="m 0,292.8913 612,0 0,206.2174 -612,0 0,-206.2174 z"
         inkscape:connector-curvature="0" /></clipPath><clipPath
       id="clipPath3421"
       clipPathUnits="userSpaceOnUse"><path
         id="path3423"
         d="m 0.3991304,293.2971 609.4920996,0 0,200.4034 -609.4920996,0 0,-200.4034 z"
         inkscape:connector-curvature="0" /></clipPath><clipPath
       id="clipPath3433"
       clipPathUnits="userSpaceOnUse"><path
         id="path3435"
         d="m 0,292.8913 612,0 0,206.2174 -612,0 0,-206.2174 z"
         inkscape:connector-curvature="0" /></clipPath><clipPath
       id="clipPath3449"
       clipPathUnits="userSpaceOnUse"><path
         id="path3451"
         d="m 0.3991304,293.2971 609.4920996,0 0,200.4034 -609.4920996,0 0,-200.4034 z"
         inkscape:connector-curvature="0" /></clipPath></defs><g
     transform="matrix(1.25,0,0,-1.25,-0.498913,617.12563)"
     id="g3363"><g
       id="g3365" /><g
       id="g3367"><g
         clip-path="url(#clipPath3371)"
         id="g3369"><path
           id="path3377"
           style="fill:#231f20;fill-opacity:1;fill-rule:nonzero;stroke:none"
           d="m 571.3619,382.6225 -29.6022,12.24 -12.2866,-29.6621 -12.2799,29.6621 -29.6155,-12.24 12.2999,29.6022 -29.6753,12.2865 29.6753,12.2799 -12.2999,29.6089 29.6155,-12.24 12.2799,29.6021 12.2866,-29.6021 -0.1464,-0.0799 29.7486,12.3199 -12.2533,-29.6089 29.6687,-12.2799 -29.6687,-12.2865 12.2533,-29.6022 z m -41.8888,111.078 c -38.25,0 -69.2691,-31.0191 -69.2691,-69.2558 0,-38.2633 31.0191,-69.2624 69.2691,-69.2624 38.2434,0 69.2492,30.9991 69.2492,69.2624 0,38.2367 -31.0058,69.2558 -69.2492,69.2558"
           inkscape:connector-curvature="0" /><path
           id="path3379"
           style="fill:#231f20;fill-opacity:1;fill-rule:nonzero;stroke:none"
           d="m 529.4598,424.438 8.7676,-21.2071 21.3335,51.3748 -51.4679,-21.267 21.3668,-8.9007"
           inkscape:connector-curvature="0" /><path
           id="path3381"
           style="fill:#231f20;fill-opacity:1;fill-rule:nonzero;stroke:none"
           d="m 347.7823,408.6724 c 0,-3.1132 -2.7407,-5.6544 -6.0269,-5.6544 -3.1997,0 -6.0335,2.5412 -6.0335,5.6544 0,3.1199 2.8338,5.7541 6.0335,5.7541 3.2862,0 6.0269,-2.6342 6.0269,-5.7541 z m 5.4681,-53.4768 0,-1.7363 -22.5775,0 0,1.7363 6.14,1.4834 0,33.5403 -6.14,1.5433 0,1.6564 16.5506,1.1907 0,-37.9307 6.0269,-1.4834"
           inkscape:connector-curvature="0" /><path
           id="path3383"
           style="fill:#231f20;fill-opacity:1;fill-rule:nonzero;stroke:none"
           d="m 417.9627,391.5896 c -4.8095,0 -8.0557,-5.1621 -8.6677,-12.067 l 16.3643,0 c -0.2461,6.5391 -2.1952,12.067 -7.6966,12.067 z m 4.4836,-34.5381 c 6.732,0 11.475,3.3993 12.7522,4.2707 l 1.5101,-2.448 c -1.5566,-1.3836 -7.65,-6.2996 -17.4753,-6.2996 -12.679,0 -21.4533,8.2953 -21.4533,21.0009 0,10.9828 8.2421,21.0342 20.1827,21.0342 12.0072,0 17.8744,-7.2442 17.941,-18.3068 l -26.8881,0 c -0.632,-9.8785 2.5677,-19.2514 13.4307,-19.2514"
           inkscape:connector-curvature="0" /></g></g><g
       id="g3385"><g
         clip-path="url(#clipPath3389)"
         id="g3387"><path
           id="path3393"
           style="fill:#231f20;fill-opacity:1;fill-rule:nonzero;stroke:none"
           d="m 151.5897,391.5896 c -4.8427,0 -8.0824,-5.1488 -8.6944,-12.0537 l 16.371,-0.02 c -0.2328,6.5324 -2.1952,12.0737 -7.6766,12.0737 z m 4.4836,-34.5381 c 6.732,0 11.455,3.3993 12.7389,4.2707 l 1.5101,-2.448 c -1.57,-1.3836 -7.6434,-6.2996 -17.4753,-6.2996 -12.679,0 -21.4599,8.2953 -21.4599,21.0009 0,10.9828 8.262,21.0342 20.2026,21.0342 12.0006,0 17.8545,-7.2442 17.9077,-18.3068 l -26.8615,0 c -0.6319,-9.8785 2.5611,-19.2514 13.4374,-19.2514"
           inkscape:connector-curvature="0" /><path
           id="path3395"
           style="fill:#231f20;fill-opacity:1;fill-rule:nonzero;stroke:none"
           d="m 32.82183,375.5778 -8.22209,25.5244 -0.16631,0 -9.23986,-25.5244 17.62826,0 z M 0,355.1157 l 3.685304,1.4569 c 0,0 18.280176,47.2504 18.898826,48.8136 -0.83152,2.7407 -4.7563,3.1132 -8.18217,3.5722 0,0.8914 0,2.1553 0,2.1553 l 17.37547,0 18.24692,-54.4347 3.64539,-1.4834 0,-1.7363 -22.65731,0 0,1.7363 7.39722,1.663 -4.47026,15.3665 -19.92991,0 -5.122176,-15.3665 9.592436,-1.5566 0,-1.8427 -18.47974,0 0,1.6564"
           inkscape:connector-curvature="0" /></g></g><g
       id="g3397"><g
         clip-path="url(#clipPath3401)"
         id="g3399"><path
           id="path3405"
           style="fill:#231f20;fill-opacity:1;fill-rule:nonzero;stroke:none"
           d="m 111.2709,394.6097 c 6.7653,0 9.8718,-3.845 9.8718,-10.9628 l 0,-26.9679 5.1156,-1.4834 0,-1.7363 -20.3823,0 0,1.7363 4.9293,1.377 0,25.4645 c 0,3.7518 -0.5056,6.9515 -4.4437,6.9515 -3.0334,0 -6.7719,-2.8139 -8.44825,-4.1044 l 0,-28.2052 5.03565,-1.4834 0,-1.7363 -20.28243,0 0,1.7363 4.92926,1.377 0,25.4645 c 0,3.9314 -0.60535,6.9515 -4.437,6.9515 -3.35935,0 -6.95818,-2.8006 -8.53474,-3.9979 l 0,-28.3117 5.28848,-1.4834 0,-1.7363 -21.83909,0 0,1.7363 6.12,1.4834 0,33.9128 -6.12,1.53 0,1.6564 16.19804,0.8381 0.16631,-6.12 c 2.19521,1.8427 6.93821,6.1134 13.70347,6.1134 5.94705,0 8.57466,-3.0334 9.43944,-6.4194 2.46796,2.295 7.28416,6.4194 13.69016,6.4194"
           inkscape:connector-curvature="0" /><path
           id="path3407"
           style="fill:#231f20;fill-opacity:1;fill-rule:nonzero;stroke:none"
           d="m 264.4838,357.424 c 5.5679,0 10.7699,5.4681 10.7699,16.7968 0,10.843 -4.59,15.1669 -10.3375,15.1669 -4.6565,0 -7.976,-2.2351 -9.5858,-3.1997 l 0,-26.1363 c 2.0289,-1.0378 5.1488,-2.6277 9.1534,-2.6277 z m 1.1774,-22.7903 0,-2.1753 -27.0544,0 0,1.7363 6.2198,1.7295 0,54.3882 -6.1266,1.5433 0,1.6564 16.3577,1.1176 0.1729,-4.7763 c 2.7074,1.6763 7.5303,4.7563 13.8964,4.7563 10.9761,0 17.5551,-7.2309 17.5551,-20.2093 0,-15.1603 -8.9605,-21.8258 -18.2802,-21.8258 -6.8584,0 -11.4218,2.8205 -13.0715,3.9248 l 0,-20.2226 10.3308,-1.6431"
           inkscape:connector-curvature="0" /><path
           id="path3409"
           style="fill:#231f20;fill-opacity:1;fill-rule:nonzero;stroke:none"
           d="m 319.7966,394.6097 c 3.5057,0 5.834,-1.8693 6.8185,-2.5411 l -2.8538,-7.7831 c -1.204,0.6918 -3.0134,1.8161 -6.0202,1.8161 -3.8383,0 -6.1666,-2.6676 -8.5214,-4.9226 l 0,-24.2206 8.854,-1.4768 0,-2.0223 -25.398,0 0,1.7363 6.1133,1.4834 0,33.6334 -6.1133,1.5433 0,1.6564 15.7989,1.0976 0.1863,-9.619 0.2128,0 c 1.8959,3.3393 4.6366,9.619 10.9229,9.619"
           inkscape:connector-curvature="0" /><path
           id="path3411"
           style="fill:#231f20;fill-opacity:1;fill-rule:nonzero;stroke:none"
           d="m 229.7062,408.6724 c 0,-3.1132 -2.734,-5.6544 -6.0269,-5.6544 -3.1996,0 -6.0335,2.5412 -6.0335,5.6544 0,3.1199 2.8339,5.7541 6.0335,5.7541 3.2929,0 6.0269,-2.6342 6.0269,-5.7541 z m 5.4814,-53.4768 0,-1.7363 -22.5642,0 0,1.7363 6.1134,1.4834 0,33.5403 -6.1134,1.5433 0,1.6564 16.544,1.1907 0,-37.9307 6.0202,-1.4834"
           inkscape:connector-curvature="0" /><path
           id="path3413"
           style="fill:#231f20;fill-opacity:1;fill-rule:nonzero;stroke:none"
           d="m 201.7205,394.6097 c 3.5057,0 5.8606,-1.8693 6.8318,-2.5411 l -2.8671,-7.7831 c -1.1907,0.6918 -3.0068,1.8161 -5.9936,1.8161 -3.8516,0 -6.1799,-2.6676 -8.5547,-4.9226 l 0,-24.2206 8.874,-1.4768 0,-2.0223 -25.4046,0 0,1.7363 6.12,1.4834 0,33.6334 -6.12,1.5433 0,1.6564 15.7989,1.0976 0.1862,-9.619 0.2063,0 c 1.8892,3.3393 4.6498,9.619 10.9228,9.619"
           inkscape:connector-curvature="0" /><path
           id="path3415"
           style="fill:#231f20;fill-opacity:1;fill-rule:nonzero;stroke:none"
           d="m 387.5224,392.6673 -0.9845,-10.1113 -2.6942,0 -1.1441,7.0912 c -0.7584,0.4124 -3.7785,1.9491 -7.3773,1.9491 -4.0778,0 -7.2043,-2.2019 -7.2043,-5.3018 -0.0266,-4.0845 4.743,-5.6677 9.5991,-7.7631 4.6698,-1.9225 12.4329,-4.9027 12.4063,-12.9385 -0.0133,-8.1156 -7.5702,-13.005 -16.8367,-13.005 -6.9581,0 -11.3153,1.3304 -12.5593,1.7296 l -0.9579,11.5082 3.0534,0 2.4413,-8.5547 c 0.3991,-0.1995 3.5722,-1.6963 7.3108,-1.6963 5.4813,0 9.4727,2.6543 9.4727,6.5657 0,4.3373 -6.5924,6.6389 -11.1424,8.6013 -4.2375,1.8227 -10.7633,4.5501 -10.7633,12.7855 0,6.5856 6.1067,11.0891 14.9874,11.0891 6.3661,0 11.5216,-1.6563 12.393,-1.949"
           inkscape:connector-curvature="0" /></g></g><g
       id="g3417"><g
         clip-path="url(#clipPath3421)"
         id="g3419"><path
           id="path3425"
           style="fill:#231f20;fill-opacity:1;fill-rule:nonzero;stroke:none"
           d="m 293.3077,293.4501 0.1596,1.1841 4.1443,0.9313 4.896,34.6179 -3.9181,1.0244 0.1995,1.1509 25.0588,0 -1.1708,-8.1822 -2.2152,0 -0.3459,6.0734 -10.9428,0 -2.2152,-15.7457 7.1178,0 1.8161,5.375 1.8493,0 -1.7828,-12.8188 -1.8826,0 -0.419,5.3617 -6.9848,0 -2.3482,-16.8034 6.1333,-0.9845 -0.1797,-1.1841 -16.9696,0"
           inkscape:connector-curvature="0" /><path
           id="path3427"
           style="fill:#231f20;fill-opacity:1;fill-rule:nonzero;stroke:none"
           d="m 443.6734,317.3314 c -4.151,0 -7.5236,-4.8494 -7.5236,-13.8565 0,-4.7164 2.0755,-7.7498 5.7741,-7.7498 3.3194,0 5.814,2.5611 7.0313,3.692 l 1.0444,-1.2506 c -1.3304,-1.5633 -4.2906,-5.2752 -10.4772,-5.2752 -5.7208,0 -9.7188,3.8117 -9.7188,11.1025 0,7.9959 5.3217,15.127 13.943,15.127 3.7851,0 6.6455,-0.6053 7.3041,-0.7517 l -1.3371,-6.8916 -2.0423,0 -0.1396,4.6232 c -0.2196,0.173 -1.6232,1.2307 -3.8583,1.2307"
           inkscape:connector-curvature="0" /></g></g><g
       id="g3429"><g
         clip-path="url(#clipPath3433)"
         id="g3431"><path
           id="path3437"
           style="fill:#231f20;fill-opacity:1;fill-rule:nonzero;stroke:none"
           d="m 335.6687,329.1323 c -0.2461,-1.6563 -1.5367,-3.1265 -3.539,-3.1265 -1.8027,0 -2.8271,1.5101 -2.5677,3.1265 0.326,1.8161 1.8693,3.2264 3.5456,3.2264 1.7362,0 2.7607,-1.55 2.5611,-3.2264 z m -7.4238,-12.4063 -4.0845,1.0444 0.1264,0.8316 10.0781,0.5188 -3.3328,-23.7482 3.9049,-0.9846 -0.1264,-0.9379 -9.7388,0 3.1731,23.2759"
           inkscape:connector-curvature="0" /><path
           id="path3439"
           style="fill:#231f20;fill-opacity:1;fill-rule:nonzero;stroke:none"
           d="m 466.3507,329.1323 c -0.2462,-1.6563 -1.5367,-3.1265 -3.5257,-3.1265 -1.816,0 -2.8471,1.5101 -2.5877,3.1265 0.326,1.8161 1.8693,3.2264 3.5323,3.2264 1.7628,0 2.774,-1.55 2.5811,-3.2264 z m -7.4305,-12.4063 -4.0645,1.0444 0.0865,0.8316 10.098,0.5188 -3.3328,-23.7482 3.9049,-0.9846 -0.1065,-0.9379 -9.772,0 3.1864,23.2759"
           inkscape:connector-curvature="0" /><path
           id="path3441"
           style="fill:#231f20;fill-opacity:1;fill-rule:nonzero;stroke:none"
           d="m 505.9643,332.0127 -3.7451,0.9912 0.1131,0.8648 9.7853,0.7317 -5.5413,-39.2944 4.0047,-0.9845 -0.1131,-0.9512 -9.8386,0 5.335,38.6424"
           inkscape:connector-curvature="0" /><path
           id="path3443"
           style="fill:#231f20;fill-opacity:1;fill-rule:nonzero;stroke:none"
           d="m 358.193,310.473 c 0.5321,3.5257 0.4922,4.7829 -0.8183,4.7829 -3.9913,0 -7.8628,-9.1002 -9.3064,-12.3531 l -1.3703,-9.4527 -5.7475,0 3.2995,23.2759 -4.1709,1.0444 0.133,0.8316 10.1113,0.5188 -1.4368,-10.3241 c 2.6076,4.8893 5.8871,10.3241 11.3353,10.3241 5.4947,0 4.1509,-5.2552 3.8649,-7.4571 l -2.2485,-16.2911 3.9182,-0.9846 -0.1331,-0.9379 -9.772,0 2.3416,17.0229"
           inkscape:connector-curvature="0" /></g></g><g
       id="g3445"><g
         clip-path="url(#clipPath3449)"
         id="g3447"><path
           id="path3453"
           style="fill:#231f20;fill-opacity:1;fill-rule:nonzero;stroke:none"
           d="m 417.843,310.473 c 0.5255,3.5257 0.4923,4.7829 -0.8116,4.7829 -3.9846,0 -7.8695,-9.1002 -9.3263,-12.3531 l -1.3371,-9.4527 -5.7209,0 3.2463,23.2759 -4.1177,1.0444 0.1197,0.8316 10.0714,0.5188 -1.4368,-10.3241 c 2.6342,4.8893 5.9137,10.3241 11.3685,10.3241 5.4748,0 4.131,-5.2552 3.8317,-7.4571 l -2.2618,-16.2911 3.9581,-0.9846 -0.1464,-0.9379 -9.772,0 2.3349,17.0229"
           inkscape:connector-curvature="0" /><path
           id="path3455"
           style="fill:#231f20;fill-opacity:1;fill-rule:nonzero;stroke:none"
           d="m 384.7218,317.3048 c -4.5035,0 -8.262,-8.7809 -8.262,-16.0983 0,-2.9003 1.1775,-4.0578 2.7208,-4.0578 3.7717,0 6.9981,8.9937 7.9493,11.3353 l 0.9779,7.9028 c -0.2728,0.1463 -1.5699,0.918 -3.386,0.918 z m 9.4993,0.8182 -3.2662,-22.7504 4.2308,-0.9846 -0.0798,-0.9379 -10.0847,0 1.1575,8.3551 c -1.5966,-3.2928 -4.6566,-8.9139 -9.9783,-8.9139 -4.8095,0 -6.0269,3.7385 -6.0269,8.1423 0,8.8407 6.5058,18.0872 16.1981,18.0872 3.672,0 6.7586,-0.7517 7.8495,-0.9978"
           inkscape:connector-curvature="0" /><path
           id="path3457"
           style="fill:#231f20;fill-opacity:1;fill-rule:nonzero;stroke:none"
           d="m 484.6109,317.3048 c -4.5302,0 -8.2886,-8.7809 -8.2886,-16.0983 0,-2.9003 1.1641,-4.0578 2.7739,-4.0578 3.7252,0 6.9582,8.9937 7.9028,11.3353 l 0.9779,7.9028 c -0.2595,0.1463 -1.5832,0.918 -3.366,0.918 z m 9.466,0.8182 -3.2329,-22.7504 4.2041,-0.9846 -0.0598,-0.9379 -10.0781,0 1.1442,8.3551 c -1.5965,-3.2928 -4.6698,-8.9139 -9.9783,-8.9139 -4.8095,0 -6.0468,3.7385 -6.0468,8.1423 0,8.8407 6.5258,18.0872 16.2047,18.0872 3.652,0 6.7653,-0.7517 7.8429,-0.9978"
           inkscape:connector-curvature="0" /></g></g></g></svg>
