<?xml version="1.0" encoding="UTF-8" standalone="no"?>
<svg
   xmlns:dc="http://purl.org/dc/elements/1.1/"
   xmlns:cc="http://creativecommons.org/ns#"
   xmlns:rdf="http://www.w3.org/1999/02/22-rdf-syntax-ns#"
   xmlns:svg="http://www.w3.org/2000/svg"
   xmlns="http://www.w3.org/2000/svg"
   xmlns:sodipodi="http://sodipodi.sourceforge.net/DTD/sodipodi-0.dtd"
   xmlns:inkscape="http://www.inkscape.org/namespaces/inkscape"
   viewBox="0 0 765 94.775002"
   height="94.775002"
   width="765"
   xml:space="preserve"
   version="1.1"
   id="svg3355"
   inkscape:version="0.91 r13725"
   sodipodi:docname="bank-of-america-logo.svg"><sodipodi:namedview
     pagecolor="#ffffff"
     bordercolor="#666666"
     borderopacity="1"
     objecttolerance="10"
     gridtolerance="10"
     guidetolerance="10"
     inkscape:pageopacity="0"
     inkscape:pageshadow="2"
     inkscape:window-width="640"
     inkscape:window-height="480"
     id="namedview61"
     showgrid="false"
     inkscape:zoom="0.23838384"
     inkscape:cx="382.5"
     inkscape:cy="47.653125"
     inkscape:window-x="0"
     inkscape:window-y="0"
     inkscape:window-maximized="0"
     inkscape:current-layer="svg3355" /><metadata
     id="metadata3361"><rdf:RDF><cc:Work
         rdf:about=""><dc:format>image/svg+xml</dc:format><dc:type
           rdf:resource="http://purl.org/dc/dcmitype/StillImage" /><dc:title /></cc:Work></rdf:RDF></metadata><defs
     id="defs3359"><clipPath
       id="clipPath3371"
       clipPathUnits="userSpaceOnUse"><path
         id="path3373"
         d="m 0,357.8775 612,0 0,75.82 -612,0 0,-75.82 z"
         inkscape:connector-curvature="0" /></clipPath><clipPath
       id="clipPath3389"
       clipPathUnits="userSpaceOnUse"><path
         id="path3391"
         d="m 0,357.75 612,0 0,76.5 -612,0 0,-76.5 z"
         inkscape:connector-curvature="0" /></clipPath><clipPath
       id="clipPath3401"
       clipPathUnits="userSpaceOnUse"><path
         id="path3403"
         d="m 0,357.8775 612,0 0,75.82 -612,0 0,-75.82 z"
         inkscape:connector-curvature="0" /></clipPath><clipPath
       id="clipPath3415"
       clipPathUnits="userSpaceOnUse"><path
         id="path3417"
         d="m 0,357.75 612,0 0,76.5 -612,0 0,-76.5 z"
         inkscape:connector-curvature="0" /></clipPath><clipPath
       id="clipPath3425"
       clipPathUnits="userSpaceOnUse"><path
         id="path3427"
         d="m 0,357.8775 612,0 0,75.82 -612,0 0,-75.82 z"
         inkscape:connector-curvature="0" /></clipPath><clipPath
       id="clipPath3437"
       clipPathUnits="userSpaceOnUse"><path
         id="path3439"
         d="m 0,357.75 612,0 0,76.5 -612,0 0,-76.5 z"
         inkscape:connector-curvature="0" /></clipPath><clipPath
       id="clipPath3457"
       clipPathUnits="userSpaceOnUse"><path
         id="path3459"
         d="m 0,357.8775 612,0 0,75.82 -612,0 0,-75.82 z"
         inkscape:connector-curvature="0" /></clipPath><clipPath
       id="clipPath3469"
       clipPathUnits="userSpaceOnUse"><path
         id="path3471"
         d="m 0,357.75 612,0 0,76.5 -612,0 0,-76.5 z"
         inkscape:connector-curvature="0" /></clipPath></defs><g
     transform="matrix(1.25,0,0,-1.25,0,542.12188)"
     id="g3363"><g
       id="g3365" /><g
       id="g3367"><g
         clip-path="url(#clipPath3371)"
         id="g3369"><path
           id="path3375"
           style="fill:#231f20;fill-opacity:1;fill-rule:evenodd;stroke:none"
           d="m 545.9741,360.7335 c 0,-1.3451 1.0944,-2.3864 2.4587,-2.3864 1.3472,0 2.4224,1.0413 2.4224,2.3864 0,1.2878 -1.0752,2.3396 -2.4224,2.3396 -1.3643,0 -2.4587,-1.0518 -2.4587,-2.3396 m -0.5716,0 c 0,1.598 1.3494,2.9155 3.0303,2.9155 1.6638,0 3.009,-1.3175 3.009,-2.9155 0,-1.6511 -1.3452,-2.9622 -3.009,-2.9622 -1.6809,0 -3.0303,1.3111 -3.0303,2.9622"
           inkscape:connector-curvature="0" /><path
           id="path3377"
           style="fill:#231f20;fill-opacity:1;fill-rule:evenodd;stroke:none"
           d="m 548.3499,360.9885 c 0.4845,0 1.1369,-0.0871 1.1369,0.5164 0,0.4271 -0.3804,0.4717 -0.8203,0.4717 l -0.8627,0 0,-0.9881 0.5461,0 z m 1.5789,-1.9253 -0.5674,0 -0.9711,1.5237 -0.5865,0 0,-1.5237 -0.4888,0 0,3.2938 1.4556,0 c 0.2954,0 0.5653,-0.0191 0.8224,-0.1636 0.2508,-0.1339 0.374,-0.4271 0.374,-0.6991 0,-0.6503 -0.4632,-0.8862 -1.0689,-0.9074 l 1.0307,-1.5237"
           inkscape:connector-curvature="0" /><path
           id="path3379"
           style="fill:#231f20;fill-opacity:1;fill-rule:nonzero;stroke:none"
           d="m 166.1219,364.9049 c 2.8198,0 4.0842,2.533 4.0842,11.4686 0,8.1409 -0.8436,11.1732 -4.0842,11.1732 -3.2194,0 -4.063,-3.0323 -4.063,-11.1732 0,-8.9356 1.2622,-11.4686 4.063,-11.4686 m 0,29.8073 c 10.6271,0 15.8865,-7.8008 15.8865,-18.3387 0,-10.9629 -5.0512,-18.6235 -15.8865,-18.6235 -10.8142,0 -15.8823,7.6606 -15.8823,18.6235 0,10.5379 5.2807,18.3387 15.8823,18.3387"
           inkscape:connector-curvature="0" /><path
           id="path3381"
           style="fill:#231f20;fill-opacity:1;fill-rule:nonzero;stroke:none"
           d="m 189.3503,385.7724 -4.6283,0 0,8.007 4.6283,0 0,3.9355 c 0,8.6424 4.2754,11.8128 11.8022,11.8128 2.2525,0 3.9376,-0.2231 5.7651,-0.4335 l 0,-8.7103 c -0.629,0.1381 -1.4726,0.2868 -2.1037,0.2868 -3.009,0 -4.08,-1.1793 -4.08,-3.3107 l 0,-3.5806 6.1837,0 0,-8.007 -6.1837,0 0,-27.2638 -11.3836,0 0,27.2638"
           inkscape:connector-curvature="0" /><path
           id="path3383"
           style="fill:#231f20;fill-opacity:1;fill-rule:nonzero;stroke:none"
           d="m 56.59087,375.4364 c -3.99287,-0.3698 -6.96362,-1.8934 -6.96362,-6.3899 0,-2.4714 1.26225,-3.7421 3.3065,-3.7421 1.28562,0 2.67325,0.9052 3.65712,2.1887 l 0,7.9433 z m 0,8.5106 c 0,2.1101 -0.98387,3.502 -2.96224,3.502 -2.73275,0 -3.59763,-2.5734 -3.723,-4.6304 l -9.911,2.0358 c 1.26437,6.953 7.59687,9.7643 14.05475,9.7643 6.817,0 13.92724,-2.9537 13.92724,-10.7397 l 0,-19.6796 c 0,-4.0184 0.63113,-5.2084 1.04976,-5.6993 l -11.73638,0 c -0.2125,0.9775 -0.29537,2.6414 -0.35912,3.2385 -1.938,-2.0612 -5.30188,-3.9142 -8.66575,-3.9142 -5.66313,0 -9.99388,3.8398 -9.82601,10.3296 0.25076,9.1779 10.62501,11.8979 18.15175,12.7606 l 0,3.0324"
           inkscape:connector-curvature="0" /></g></g><g
       id="g3385"><g
         clip-path="url(#clipPath3389)"
         id="g3387"><path
           id="path3393"
           style="fill:#231f20;fill-opacity:1;fill-rule:nonzero;stroke:none"
           d="m 86.00938,383.726 0,-25.2259 -11.38363,0 0,35.2793 11.12863,0 0.06374,-3.6083 0.14663,0 c 2.35663,2.3949 5.49313,4.4476 9.93012,4.4476 4.96823,0 7.82633,-3.3638 7.82633,-8.2237 l 0,-27.8949 -11.38145,0 0,24.2888 c 0,2.0081 -0.714,3.1216 -2.62863,3.1216 -1.28349,0 -2.669,-0.8394 -3.70174,-2.1845"
           inkscape:connector-curvature="0" /><path
           id="path3395"
           style="fill:#231f20;fill-opacity:1;fill-rule:nonzero;stroke:none"
           d="m 110.7911,408.5375 11.3815,0 0,-25.4044 0.1467,0 8.3746,10.6463 11.3198,0 -9.5114,-10.8482 9.571,-24.4226 -11.8044,0 -5.5505,15.3999 -0.1467,0 -2.3991,-2.7646 0,-12.6353 -11.3815,0 0,50.0289"
           inkscape:connector-curvature="0" /></g></g><g
       id="g3397"><g
         clip-path="url(#clipPath3401)"
         id="g3399"><path
           id="path3405"
           style="fill:#231f20;fill-opacity:1;fill-rule:nonzero;stroke:none"
           d="m 12.28888,388.7155 4.14375,0 c 4.58149,0 6.39625,2.4607 6.39625,5.4209 0,4.7727 -3.24063,5.5462 -6.10513,5.5462 l -4.43487,0 0,-10.9671 z m 0,-20.9419 4.62825,0 c 2.75399,0 6.39412,1.2028 6.39412,6.3261 0,3.7337 -2.29713,6.1944 -6.39412,6.1944 l -4.62825,0 0,-12.5205 z m 14.01225,16.7599 c 5.42725,-1.7892 9.36062,-6.2369 9.36062,-12.631 0,-8.5659 -6.88075,-13.3939 -16.39012,-13.3939 l -19.27163,0 0,50.0289 19.77525,0 c 8.88038,0 14.688,-5.3125 14.688,-12.223 0,-6.5493 -4.54113,-9.979 -8.16212,-11.39 l 0,-0.391"
           inkscape:connector-curvature="0" /><path
           id="path3407"
           style="fill:#231f20;fill-opacity:1;fill-rule:nonzero;stroke:none"
           d="m 437.6693,375.4364 c -3.9738,-0.3698 -6.9615,-1.8934 -6.9615,-6.3899 0,-2.4714 1.2834,-3.7421 3.3234,-3.7421 1.2814,0 2.6712,0.9052 3.6381,2.1887 l 0,7.9433 z m 0,8.5106 c 0,2.1101 -0.9669,3.502 -2.9432,3.502 -2.7349,0 -3.5997,-2.5734 -3.723,-4.6304 l -9.911,2.0358 c 1.2601,6.953 7.5948,9.7643 14.0526,9.7643 6.8192,0 13.9124,-2.9537 13.9124,-10.7397 l 0,-19.6796 c 0,-4.0184 0.6439,-5.2084 1.0689,-5.6993 l -11.7406,0 c -0.2061,0.9775 -0.2912,2.6414 -0.357,3.2385 -1.9571,-2.0612 -5.2998,-3.9142 -8.6679,-3.9142 -5.6801,0 -9.996,3.8398 -9.826,10.3296 0.255,9.1779 10.625,11.8979 18.1348,12.7606 l 0,3.0324"
           inkscape:connector-curvature="0" /><path
           id="path3409"
           style="fill:#231f20;fill-opacity:1;fill-rule:nonzero;stroke:none"
           d="m 329.1476,380.4535 c 0.1084,3.2619 -0.3527,7.089 -4.2882,7.089 -3.2407,0 -4.3945,-3.7676 -4.2267,-7.089 l 8.5149,0 z m -8.5149,-6.766 c -0.1487,-3.128 0.6716,-8.3598 5.2807,-8.3598 2.7327,0 5.0511,2.0082 5.6164,4.8493 l 7.6584,-2.8135 c -0.4823,-1.615 -3.9992,-9.6135 -14.1185,-9.6135 -10.8969,0 -15.8036,8.7763 -15.8036,18.5534 0,9.962 5.1786,18.4088 15.657,18.4088 10.982,0 14.7667,-9.4137 14.7667,-18.6256 l 0,-2.3991 -19.0571,0"
           inkscape:connector-curvature="0" /></g></g><g
       id="g3411"><g
         clip-path="url(#clipPath3415)"
         id="g3413"><path
           id="path3419"
           style="fill:#231f20;fill-opacity:1;fill-rule:nonzero;stroke:none"
           d="m 370.3854,358.498 11.38575,0 0,35.28138 -11.38575,0 0,-35.28138 z"
           inkscape:connector-curvature="0" /></g></g><g
       id="g3421"><g
         clip-path="url(#clipPath3425)"
         id="g3423"><path
           id="path3429"
           style="fill:#231f20;fill-opacity:1;fill-rule:nonzero;stroke:none"
           d="m 370.3854,398.414 11.38575,0 0,10.1235 -11.38575,0 0,-10.1235 z"
           inkscape:connector-curvature="0" /><path
           id="path3431"
           style="fill:#231f20;fill-opacity:1;fill-rule:nonzero;stroke:none"
           d="m 407.0374,380.7276 c 0,1.4068 -0.0829,3.0983 -0.5653,4.4243 -0.5673,1.4088 -1.4768,2.3906 -3.2852,2.3906 -3.8059,0 -4.2245,-4.641 -4.2245,-11.6684 0,-7.9368 1.2601,-10.5421 4.2245,-10.5421 4.0013,0 4.3541,4.0736 4.3541,6.7575 l 8.8358,-1.275 c -0.8394,-8.5744 -5.7439,-13.0645 -14.0527,-13.0645 -10.2467,0 -15.5911,8.9845 -15.5911,17.7055 0,9.6305 5.3444,19.2567 16.0756,19.2567 12.0976,0 13.9294,-10.4635 13.9294,-13.9846 l -9.7006,0"
           inkscape:connector-curvature="0" /></g></g><g
       id="g3433"><g
         clip-path="url(#clipPath3437)"
         id="g3435"><path
           id="path3441"
           style="fill:#231f20;fill-opacity:1;fill-rule:nonzero;stroke:none"
           d="m 229.8719,377.4721 8.0941,0 -3.5934,20.3809 -0.2699,0 -4.2308,-20.3809 z m -3.1578,31.0548 16.5814,0 10.6845,-50.0268 -12.2846,0 -1.9784,10.1065 -11.5919,0 -2.1866,-10.1065 -10.9608,0 11.7364,50.0268"
           inkscape:connector-curvature="0" /><path
           id="path3443"
           style="fill:#231f20;fill-opacity:1;fill-rule:nonzero;stroke:none"
           d="m 344.3648,393.7794 11.0223,0 0.1275,-4.7813 0.1658,0 c 2.3396,3.7166 6.5832,5.6206 10.9629,5.6206 l 0,-11.5238 c -1.2814,0.5036 -2.6712,0.986 -4.6283,0.986 -2.9049,0 -4.9024,-1.1433 -6.2496,-2.7413 l 0,-22.8395 -11.4006,0 0,35.2793"
           inkscape:connector-curvature="0" /><path
           id="path3445"
           style="fill:#231f20;fill-opacity:1;fill-rule:nonzero;stroke:none"
           d="m 286.5945,383.6707 0,-25.1621 -11.1732,0 0,24.1719 c 0,1.8976 -0.5674,3.1599 -2.6733,3.1599 -1.1985,0 -2.9006,-0.867 -3.8717,-2.1697 l 0,-25.1621 -11.1691,0 0,35.2708 11.1096,0 0.0595,-3.5998 0.1296,0 c 2.3949,2.2483 5.9712,4.4391 10.2021,4.4391 3.4701,0 5.7779,-2.0017 6.8595,-4.7196 l 0.1424,0 c 1.9826,2.1548 5.389,4.7196 10.1468,4.7196 4.7346,0 7.9497,-3.1216 7.9497,-7.9985 l 0,-28.1116 -11.1733,0 0,24.1719 c 0,1.8976 -0.5631,3.1599 -2.6541,3.1599 -1.5088,0 -3.1514,-1.1964 -3.8845,-2.1697"
           inkscape:connector-curvature="0" /><path
           id="path3447"
           style="fill:#231f20;fill-opacity:1;fill-rule:evenodd;stroke:none"
           d="m 519.8685,414.9571 c 4.4816,-1.7595 8.8825,-3.6528 13.2557,-5.6801 -13.9059,-5.6291 -27.3083,-12.3144 -40.1242,-19.958 -4.3307,2.2674 -8.7274,4.4285 -13.1707,6.4303 12.7776,7.4459 26.1545,13.8805 40.0392,19.2078"
           inkscape:connector-curvature="0" /><path
           id="path3449"
           style="fill:#231f20;fill-opacity:1;fill-rule:evenodd;stroke:none"
           d="m 503.3105,420.8009 c -14.4075,-4.5688 -28.2922,-10.5337 -41.446,-17.7927 4.1884,-1.5108 8.3491,-3.1258 12.4525,-4.8535 12.75,7.497 26.2161,13.8104 40.2305,18.8212 -3.7017,1.3706 -7.4502,2.6477 -11.237,3.825"
           inkscape:connector-curvature="0" /><path
           id="path3451"
           style="fill:#231f20;fill-opacity:1;fill-rule:evenodd;stroke:none"
           d="m 549.9776,415.5288 c -11.3411,5.4739 -23.1008,10.098 -35.1964,13.7721 -4.25,-1.2198 -8.483,-2.5585 -12.6671,-4.012 12.4759,-3.6869 24.5948,-8.3577 36.2504,-13.9464 3.8271,1.4705 7.718,2.8751 11.6131,4.1863"
           inkscape:connector-curvature="0" /></g></g><g
       id="g3453"><g
         clip-path="url(#clipPath3457)"
         id="g3455"><path
           id="path3461"
           style="fill:#231f20;fill-opacity:1;fill-rule:evenodd;stroke:none"
           d="m 568.4694,421.0431 c -11.6131,5.0597 -23.5833,9.2905 -35.8488,12.6544 -3.8951,-0.8117 -7.786,-1.7043 -11.6174,-2.7051 12.1593,-3.5467 23.9892,-8.0431 35.3919,-13.4003 3.9971,1.2325 8.0155,2.38 12.0743,3.451"
           inkscape:connector-curvature="0" /><path
           id="path3463"
           style="fill:#231f20;fill-opacity:1;fill-rule:evenodd;stroke:none"
           d="m 598.1535,411.0599 c -29.0934,-9.7984 -56.3423,-23.7745 -80.9944,-41.2526 6.1625,-3.7826 12.1784,-7.8009 18.0264,-12.036 23.2475,18.4322 49.0429,33.796 76.8145,45.4622 -4.5454,2.7455 -9.1524,5.3529 -13.8465,7.8264"
           inkscape:connector-curvature="0" /></g></g><g
       id="g3465"><g
         clip-path="url(#clipPath3469)"
         id="g3467"><path
           id="path3473"
           style="fill:#231f20;fill-opacity:1;fill-rule:evenodd;stroke:none"
           d="m 578.1487,420.5799 c -30.2323,-7.9985 -58.6776,-20.9143 -84.3051,-37.9037 5.7652,-2.8411 11.4453,-5.8862 17.0022,-9.0971 25.1175,17.3677 52.9932,30.9124 82.722,39.8459 -5.0682,2.5436 -10.2022,4.9258 -15.4191,7.1549"
           inkscape:connector-curvature="0" /></g></g></g></svg>